{"title":"I Cover The Underworld 1955 VHSRip XviD.avi","uid":8962061,"size":574498816,"categoryP":"video","categoryS":"movies","magnet":"?xt=urn:btih:26498da4bc64bb7afba5ea3e41d963f52c00cde8&amp;dn=I+Cover+The+Underworld+1955+VHSRip+XviD.avi&amp;tr=udp%3A%2F%2Ftracker.openbittorrent.com%3A80&amp;tr=udp%3A%2F%2Fopen.demonii.com%3A1337&amp;tr=udp%3A%2F%2Ftracker.coppersurfer.tk%3A6969&amp;tr=udp%3A%2F%2Fexodus.desync.com%3A6969","seeders":0,"leechers":1,"uploader":"acayouche","files":-1,"time":1380141260,"description":"I Cover the Underworld (1955)\n70 min  -  Crime | Drama  -  19 May 1955 (USA)\n5.7\nYour rating:\n    -/10  \nRatings: 5.7/10 from 10 users  \nReviews: write review\n\nA priest is about to see his twin brother, whom he hasn't seen in a long time--because his brother, a gang leader, has been serving a stretch in prison.\n\nDirector:\nR.G. Springsteen\nWriter:\nJohn K. Butler\nStars:\nSean McClory, Joanne Jordan, Ray Middleton | See full cast and crew \n\n\nMEDIAINFO:\n\nI Cover The Underworld 1955 VHSRip XviD.avi\nFormat                                   : AVI\nFormat/Info                              : Audio Video Interleave\nFile size                                : 548 MiB\nDuration                                 : 1h 9mn\nOverall bit rate                         : 1 098 Kbps\nWriting application                      : FairUse Wizard - http://fairusewizard.com\nWriting library                          : The best and REALLY easy backup tool\n\nVideo\nID                                       : 0\nFormat                                   : MPEG-4 Visual\nFormat profile                           : Advanced Simple@L5\nFormat settings, BVOP                    : 1\nFormat settings, QPel                    : No\nFormat settings, GMC                     : No warppoints\nFormat settings, Matrix                  : Default (MPEG)\nMuxing mode                              : Packed bitstream\nCodec ID                                 : XVID\nCodec ID/Hint                            : XviD\nDuration                                 : 1h 9mn\nBit rate                                 : 958 Kbps\nWidth                                    : 608 pixels\nHeight                                   : 464 pixels\nDisplay aspect ratio                     : 4:3\nFrame rate                               : 29.970 fps\nColor space                              : YUV\nChroma subsampling                       : 4:2:0\nBit depth                                : 8 bits\nScan type                                : Progressive\nCompression mode                         : Lossy\nBits/(Pixel*Frame)                       : 0.113\nStream size                              : 478 MiB (87%)\nWriting library                          : XviD 1.2.0.dev47 (UTC 2006-11-01)\n\nAudio\nID                                       : 1\nFormat                                   : MPEG Audio\nFormat version                           : Version 1\nFormat profile                           : Layer 3\nMode                                     : Joint stereo\nMode extension                           : MS Stereo\nCodec ID                                 : 55\nCodec ID/Hint                            : MP3\nDuration                                 : 1h 9mn\nBit rate mode                            : Constant\nBit rate                                 : 128 Kbps\nChannel(s)                               : 2 channels\nSampling rate                            : 48.0 KHz\nCompression mode                         : Lossy\nStream size                              : 63.9 MiB (12%)\nAlignment                                : Aligned on interleaves\nInterleave, duration                     : 33 ms (1.00 video frame)\nInterleave, preload duration             : 504 ms\nWriting library                          : LAME3.97 \nEncoding settings                        : -m j -V 4 -q 2 -lowpass 17 -b 128\n\n","torrent":{"xt":"urn:btih:26498da4bc64bb7afba5ea3e41d963f52c00cde8","amp;dn":"I+Cover+The+Underworld+1955+VHSRip+XviD.avi","amp;tr":["udp%3A%2F%2Ftracker.openbittorrent.com%3A80","udp%3A%2F%2Fopen.demonii.com%3A1337","udp%3A%2F%2Ftracker.coppersurfer.tk%3A6969","udp%3A%2F%2Fexodus.desync.com%3A6969"],"infoHash":"26498da4bc64bb7afba5ea3e41d963f52c00cde8","infoHashBuffer":{"type":"Buffer","data":[38,73,141,164,188,100,187,122,251,165,234,62,65,217,99,245,44,0,205,232]},"announce":[],"urlList":[]}}